<svg width="24" height="24" viewBox="0 0 24 24" fill="none" xmlns="http://www.w3.org/2000/svg">
<path d="M2.05 6C1.74624 6 1.5 6.24624 1.5 6.55V8.01667H2.6V7.1H3.8705V6H2.05Z" fill="#858585"/>
<path d="M7.132 6H5.3115V7.1H6.90841L7.98923 8.15275L8.75675 7.36477L7.51576 6.15601C7.41306 6.05598 7.27536 6 7.132 6Z" fill="#858585"/>
<path d="M10.9038 9.45601L9.66277 8.24725L8.89525 9.03523L9.97 10.0821V11.3625H11.07V9.85C11.07 9.70162 11.01 9.55954 10.9038 9.45601Z" fill="#858585"/>
<path d="M2.6 11.6833V8.75H1.5V11.6833H2.6Z" fill="#858585"/>
<path d="M11.07 15.2125V12.1875H9.97V15.2125H11.07Z" fill="#858585"/>
<path d="M2.6 15.35V12.4167H1.5V15.35H2.6Z" fill="#858585"/>
<path d="M11.07 17.55V16.0375H9.97V17H8.91125V18.1H10.52C10.8238 18.1 11.07 17.8538 11.07 17.55Z" fill="#858585"/>
<path d="M2.6 17V16.0833H1.5V17.55C1.5 17.8538 1.74624 18.1 2.05 18.1H3.65875V17H2.6Z" fill="#858585"/>
<path d="M7.89375 17H4.67625V18.1H7.89375V17Z" fill="#858585"/>
<path fill-rule="evenodd" clip-rule="evenodd" d="M18.5478 6C18.8685 6 19.177 6.12705 19.4069 6.35695L22.3231 9.2791C22.5529 9.50295 22.68 9.8115 22.68 10.1322V16.89C22.68 17.5555 22.1355 18.1 21.47 18.1H14.2039C13.5385 18.1 13 17.5555 13 16.89V7.21C13 6.5445 13.5445 6 14.21 6H18.5478ZM18.445 6.9075V9.63C18.445 9.96275 18.7173 10.235 19.05 10.235H21.7725L18.445 6.9075Z" fill="#858585"/>
</svg>
