<svg width="24" height="24" viewBox="0 0 24 24" fill="none" xmlns="http://www.w3.org/2000/svg">
<path fill-rule="evenodd" clip-rule="evenodd" d="M7.19787 6C7.51852 6 7.82707 6.12705 8.05697 6.35695L10.9731 9.2791C11.203 9.50295 11.33 9.8115 11.33 10.1322V16.89C11.33 17.5555 10.7855 18.1 10.12 18.1H2.85397C2.18847 18.1 1.65002 17.5555 1.65002 16.89V7.21C1.65002 6.5445 2.19452 6 2.86002 6H7.19787ZM7.09502 6.9075V9.63C7.09502 9.96275 7.36727 10.235 7.70002 10.235H10.4225L7.09502 6.9075Z" fill="#858585"/>
<path fill-rule="evenodd" clip-rule="evenodd" d="M18.1979 6C18.5185 6 18.8271 6.12705 19.057 6.35695L21.9731 9.2791C22.203 9.50295 22.33 9.8115 22.33 10.1322V16.89C22.33 17.5555 21.7855 18.1 21.12 18.1H13.854C13.1885 18.1 12.65 17.5555 12.65 16.89V7.21C12.65 6.5445 13.1945 6 13.86 6H18.1979ZM18.095 6.9075V9.63C18.095 9.96275 18.3673 10.235 18.7 10.235H21.4225L18.095 6.9075Z" fill="#858585"/>
</svg>
