<svg width="24" height="24" viewBox="0 0 24 24" fill="none" xmlns="http://www.w3.org/2000/svg">
<path d="M11.4782 5.09017C13.2382 3.03017 16.4982 2.19017 19.1382 3.99017C20.5382 4.95017 21.4182 6.57017 21.4782 8.27017C21.513 9.30752 21.2933 10.2898 20.8523 11.2634C20.8523 11.2634 20.1588 10.6193 19.2148 9.97411C19.388 9.47907 19.4782 8.99019 19.4782 8.50017C19.4782 6.50017 17.9782 5.00017 15.9782 5.00017C14.4382 5.00017 12.9382 5.99017 12.4182 7.36017H10.5482C10.0182 5.99017 8.51824 5.00017 6.97824 5.00017C4.97824 5.00017 3.47824 6.50017 3.47824 8.50017C3.47824 11.3902 6.61824 14.2402 11.3782 18.5502L11.4782 18.6502C11.4805 18.6479 12.9282 20.0202 12.9282 20.0202L12.8182 20.1202C12.0582 20.8202 10.8882 20.8202 10.1282 20.1302L10.0282 20.0402L9.96785 19.9853C4.75188 15.2463 1.33878 12.1453 1.47824 8.28017C1.53824 6.57017 2.41824 4.95017 3.81824 3.99017C6.45824 2.18017 9.71824 3.03017 11.4782 5.09017Z" fill="#858585"/>
<path d="M21.5657 16.2017C21.5657 16.7517 21.1157 17.2017 20.5657 17.2017H18.5657V19.2017C18.5657 19.7517 18.1157 20.2017 17.5657 20.2017C17.0157 20.2017 16.5657 19.7517 16.5657 19.2017V17.2017H14.5657C14.0157 17.2017 13.5657 16.7517 13.5657 16.2017C13.5657 15.6517 14.0157 15.2017 14.5657 15.2017H16.5657V13.2017C16.5657 12.6517 17.0157 12.2017 17.5657 12.2017C18.1157 12.2017 18.5657 12.6517 18.5657 13.2017V15.2017H20.5657C21.1157 15.2017 21.5657 15.6517 21.5657 16.2017Z" fill="#858585"/>
</svg>
