<svg width="24" height="24" viewBox="0 0 24 24" fill="none" xmlns="http://www.w3.org/2000/svg">
<path d="M19.7419 2.09704C20.0418 2.1954 20.3183 2.38937 20.5369 2.70429C20.8139 3.10333 20.9731 3.66443 20.9855 4.41025L20.9861 4.45916L20.9994 16.6414L20.9999 17.8307L20.9983 19.7507L20.9967 20.0066C20.9941 20.2566 20.9196 20.6238 20.7826 20.9451C20.5938 21.3882 20.3049 21.722 19.9071 21.8876C19.7365 21.9586 19.5584 21.9942 19.3737 21.9942C18.8241 21.9942 18.2228 21.6798 17.5771 21.0605L16.0153 19.533L11.5297 15.1291L12.3225 14.0216L14.9306 16.5834L17.3866 18.993L18.3891 19.9735L12.0022 7.26825L11.8524 6.96858L11.8203 6.90591C11.815 6.89567 11.8097 6.88552 11.8044 6.87547L11.7729 6.81636L11.7417 6.75961L11.7109 6.70523C11.7007 6.68749 11.6905 6.67015 11.6804 6.6532L11.6503 6.60353C11.6403 6.58737 11.6304 6.5716 11.6206 6.55622L11.5912 6.51126C11.4065 6.23393 11.2447 6.09791 11.1115 6.10008C11.0039 6.10126 10.9374 6.11952 10.8417 6.19932C10.6975 6.31951 10.5523 6.55184 10.4097 6.92758L10.3776 7.01507L10.3378 7.13077L10.2981 7.24982L10.0725 7.94594L9.83863 8.66852L9.72521 9.0153L9.57421 9.47166L9.49541 9.70747L9.38469 10.0362L8.31657 8.98952L8.40537 8.7213L8.56686 8.22834L9.01047 6.85829L9.06923 6.68213L9.1084 6.56853L9.12837 6.51279L9.13448 6.49616C9.55766 5.35257 10.192 4.77702 11.0674 4.75514L11.1007 4.75458L11.1165 4.75453C11.8768 4.75453 12.4675 5.23426 13.0151 6.28724L13.0537 6.36252L14.1054 8.4592L19.6534 19.4925L19.6543 18.6643L19.6498 12.8125L19.6408 5.2168L19.6408 4.5089C19.6409 4.40025 19.6365 4.29743 19.6285 4.20133L19.6232 4.14449C19.6185 4.0978 19.6128 4.05283 19.6064 4.0097L19.5982 3.95883L19.5894 3.90975C19.5817 3.86962 19.5732 3.83141 19.5641 3.79523L19.5529 3.75279C19.4933 3.53865 19.4097 3.40422 19.3224 3.37563C19.1925 3.33278 18.9239 3.48465 18.7105 3.77551L18.4034 4.19874L17.4027 5.58686L15.1248 8.75437L14.442 7.39877L17.2339 3.51965L17.6257 2.97945C18.1905 2.20983 19.0209 1.86033 19.7419 2.09704ZM3.74827 7.42978C4.51623 7.05153 5.50951 7.37058 6.47732 8.29077L6.7065 8.51263L8.49715 10.2648L10.2069 11.9428L9.40984 13.046L6.19094 9.88951L5.58291 9.29729L5.57379 9.28849C5.11511 8.84615 4.68847 8.62234 4.42808 8.62234C4.39011 8.62234 4.36095 8.62793 4.34259 8.63704C4.26466 8.67538 4.20137 8.82459 4.17168 9.05261L4.16651 9.09628L4.16216 9.14175C4.1615 9.14947 4.16088 9.15727 4.1603 9.16514L4.15722 9.21322L4.15502 9.26299C4.15299 9.32201 4.15282 9.38437 4.15471 9.44974L4.15684 9.50649L4.16001 9.56467C4.16062 9.57448 4.16128 9.58435 4.16199 9.59428L4.16676 9.65451C4.16765 9.66466 4.16859 9.67486 4.16957 9.68511L4.17265 9.71604L4.1764 9.75086L5.11011 18.1264L5.13433 18.3492L7.27799 12.0528L8.34401 13.0973L6.51138 18.4802L8.40606 15.8206L10.0199 13.5579L10.3043 13.1629L10.3065 13.1589C10.3094 13.1535 10.3116 13.1496 10.3141 13.1458L12.5326 10.056L13.2156 11.4118L11.7108 13.5073L10.964 14.5526L10.9633 14.5522L7.291 19.7058C6.87779 20.2875 6.32462 20.7079 5.65199 20.7079C5.51954 20.7079 5.38542 20.6905 5.24946 20.6549C4.52607 20.465 3.94079 19.7414 3.84319 18.9257L3.64599 17.1241L2.9664 11.0368L2.83917 9.90051C2.75478 9.14631 2.83982 8.5613 3.06199 8.12595C3.23347 7.78995 3.47429 7.56464 3.74827 7.42978Z" fill="#858585"/>
</svg>
