<svg width="24" height="24" viewBox="0 0 24 24" fill="none" xmlns="http://www.w3.org/2000/svg">
<path fill-rule="evenodd" clip-rule="evenodd" d="M19.99 6.22864C20.05 7.21838 19.78 8.11877 19.3 8.88879L21.71 11.2887C22.1 11.6788 22.1 12.3185 21.71 12.7086C21.32 13.0988 20.68 13.0988 20.29 12.7086L17.88 10.2985C17.19 10.7384 16.37 10.9987 15.49 10.9987C13.01 10.9987 11 8.9884 11 6.49866C11 3.8385 13.3 1.72864 16.02 2.02844C18.15 2.25842 19.86 4.07873 19.99 6.22864ZM13 6.49866C13 7.87854 14.12 8.99866 15.5 8.99866C16.88 8.99866 18 7.87854 18 6.49866C18 5.11877 16.88 3.99866 15.5 3.99866C14.12 3.99866 13 5.11877 13 6.49866Z" fill="#858585"/>
<path d="M14 20H16V22H14V20Z" fill="#858585"/>
<path d="M19 15.5C18.4477 15.5 18 15.9477 18 16.5V18H20V16.5C20 15.9477 19.5523 15.5 19 15.5Z" fill="#858585"/>
<path d="M8 20H6V22H8V20Z" fill="#858585"/>
<path d="M4 8H2L2 10H4L4 8Z" fill="#858585"/>
<path d="M4 6L4 4C2.9 4 2 4.9 2 6H4Z" fill="#858585"/>
<path d="M18 20V22C19.1 22 20 21.1 20 20H18Z" fill="#858585"/>
<path d="M12 20H10V22H12V20Z" fill="#858585"/>
<path d="M4 16H2L2 18H4L4 16Z" fill="#858585"/>
<path d="M7.5 4L6 4V6H7.5C8.05229 6 8.5 5.55228 8.5 5C8.5 4.44771 8.05229 4 7.5 4Z" fill="#858585"/>
<path d="M4 12H2L2 14H4L4 12Z" fill="#858585"/>
<path d="M4 20H2C2 21.1 2.9 22 4 22L4 20Z" fill="#858585"/>
</svg>
