<svg width="24" height="24" viewBox="0 0 24 24" fill="none" xmlns="http://www.w3.org/2000/svg">
<path d="M14.58 2.58C14.21 2.21 13.7 2 13.17 2H6C4.9 2 4.01 2.9 4.01 4L4 20C4 21.1 4.89 22 5.99 22H18C19.1 22 20 21.1 20 20V8.83C20 8.3 19.79 7.79 19.41 7.41L14.58 2.58ZM15.682 12.696C15.711 12.896 15.739 13.089 15.739 13.3C15.739 13.51 15.711 13.703 15.682 13.904L15.679 13.93L16.519 14.66C16.699 14.82 16.739 15.08 16.619 15.29L16.029 16.31C15.909 16.51 15.669 16.61 15.439 16.53L14.379 16.17C14.059 16.44 13.699 16.65 13.299 16.8L13.079 17.89C13.029 18.12 12.829 18.29 12.589 18.29H11.409C11.169 18.29 10.969 18.12 10.919 17.89L10.699 16.8C10.299 16.65 9.939 16.44 9.619 16.17L8.559 16.53C8.45051 16.5689 8.33176 16.5682 8.22377 16.5279C8.11578 16.4876 8.02553 16.4104 7.969 16.31L7.379 15.29C7.32027 15.1896 7.29813 15.072 7.31636 14.9571C7.33459 14.8423 7.39207 14.7373 7.479 14.66L8.319 13.93L8.315 13.904C8.28147 13.7043 8.26276 13.5024 8.259 13.3C8.259 13.09 8.286 12.897 8.315 12.696L8.319 12.67L7.479 11.94C7.39207 11.8627 7.33459 11.7577 7.31636 11.6429C7.29813 11.528 7.32027 11.4104 7.379 11.31L7.969 10.29C8.089 10.09 8.329 9.99 8.559 10.07L9.619 10.43C9.939 10.16 10.299 9.95 10.699 9.8L10.919 8.71C10.969 8.48 11.169 8.31 11.409 8.31H12.589C12.829 8.31 13.029 8.48 13.079 8.71L13.299 9.8C13.699 9.95 14.059 10.16 14.379 10.43L15.439 10.07C15.659 9.99 15.909 10.08 16.029 10.29L16.619 11.31C16.739 11.52 16.699 11.78 16.519 11.94L15.679 12.67C15.679 12.679 15.681 12.688 15.682 12.696ZM9.99 13.3C9.99 12.2 10.89 11.3 11.99 11.3C13.09 11.3 13.99 12.2 13.99 13.3C13.99 14.4 13.09 15.3 11.99 15.3C10.89 15.3 9.99 14.4 9.99 13.3Z" fill="#858585"/>
</svg>
