<svg width="24" height="24" viewBox="0 0 24 24" fill="none" xmlns="http://www.w3.org/2000/svg">
<path d="M12.2773 2.2002H5.65546C4.74496 2.2002 4 2.94515 4 3.85565V17.0993C4 18.0098 4.73668 18.7548 5.64718 18.7548H15.5882C16.4987 18.7548 17.2437 18.0098 17.2437 17.0993V7.16657L12.2773 2.2002ZM15.5882 17.0993H5.65546V3.85565H11.4496V6.33884C11.4496 7.25313 12.1907 7.9943 13.105 7.9943H15.5882V17.0993Z" fill="#858585"/>
<path d="M20.2465 11.8179C20.2465 11.3608 19.8759 10.9902 19.4188 10.9902C18.9616 10.9902 18.591 11.3608 18.591 11.8179V20.0952H13.6205H9.47773C9.02059 20.0952 8.65 20.4658 8.65 20.923C8.65 21.3801 9.02059 21.7507 9.47773 21.7507H18.591C19.5015 21.7507 20.2465 21.0057 20.2465 20.0952V11.8179Z" fill="#858585"/>
</svg>
