<svg width="24" height="24" viewBox="0 0 24 24" fill="none" xmlns="http://www.w3.org/2000/svg">
<path d="M17 11C17.34 11 17.67 11.03 18 11.08V4C18 2.9 17.1 2 16 2H4C2.9 2 2 2.9 2 4V20C2 21.1 2.9 22 4 22H11.26C10.47 20.87 10 19.49 10 18C10 14.13 13.13 11 17 11ZM6.76 10.55C6.42 10.75 6 10.51 6 10.12V4H11V10.12C11 10.51 10.58 10.75 10.24 10.55L8.5 9.5L6.76 10.55Z" fill="#858585"/>
<path d="M17 13C14.24 13 12 15.24 12 18C12 20.76 14.24 23 17 23C19.76 23 22 20.76 22 18C22 15.24 19.76 13 17 13ZM15.75 19.6V16.4C15.75 16.01 16.18 15.77 16.51 15.98L19.07 17.58C19.38 17.78 19.38 18.23 19.07 18.43L16.51 20.03C16.18 20.23 15.75 19.99 15.75 19.6Z" fill="#858585"/>
</svg>
