<svg width="24" height="24" viewBox="0 0 24 24" fill="none" xmlns="http://www.w3.org/2000/svg">
<path d="M10.94 18.9199C7.95004 18.4899 5.52004 16.0599 5.08004 13.0799C4.54004 9.4799 6.74004 6.3099 9.91004 5.3199C10.55 5.1299 11 4.5599 11 3.8899V3.8699C11 2.8699 10.03 2.1399 9.07004 2.4299C4.56004 3.8099 1.41004 8.28991 2.09004 13.3899C2.68004 17.7699 6.22004 21.3099 10.6 21.8999C13.74 22.3199 16.64 21.2899 18.73 19.3699C19.47 18.6899 19.34 17.4799 18.47 16.9799C17.89 16.6399 17.17 16.7499 16.67 17.1999C15.2 18.5399 13.16 19.2499 10.94 18.9199Z" fill="#858585"/>
</svg>
