<svg width="24" height="24" viewBox="0 0 24 24" fill="none" xmlns="http://www.w3.org/2000/svg">
<path fill-rule="evenodd" clip-rule="evenodd" d="M5.52 2C3.57596 2 2 3.57596 2 5.52V18.48C2 20.424 3.57596 22 5.52 22H18.48C20.424 22 22 20.424 22 18.48V5.52C22 3.57596 20.424 2 18.48 2H5.52ZM14.4114 14.9275C14.4114 16.0546 13.5276 16.6181 11.76 16.6181C11.181 16.6181 10.5867 16.5591 9.97714 16.4411C9.52195 16.3408 8.99077 16.1866 8.3836 15.9786C8.05924 15.8674 7.70147 16.0224 7.56932 16.3387L7.21158 17.1952C7.07345 17.5259 7.23341 17.9068 7.57088 18.0275C8.26657 18.2762 8.91628 18.4616 9.52 18.5838C10.3124 18.7279 11.0743 18.8 11.8057 18.8C13.6648 18.8 15.0286 18.4396 15.8971 17.7189C16.7657 16.985 17.2 16.0283 17.2 14.8489C17.2 13.8267 16.9105 13.0077 16.3314 12.3918C15.7676 11.7627 14.9219 11.2844 13.7943 10.9568L11.92 10.4261C11.2648 10.2426 10.7924 10.0198 10.5029 9.75771C10.2286 9.48251 10.0914 9.13524 10.0914 8.71589C10.0914 8.15238 10.2895 7.76579 10.6857 7.55611C11.0971 7.33333 11.6533 7.22194 12.3543 7.22194C12.8876 7.22194 13.4057 7.28091 13.9086 7.39886C14.2869 7.47541 14.7221 7.5904 15.2142 7.74383C15.5356 7.84405 15.8836 7.68833 16.0134 7.37766L16.3738 6.51479C16.5132 6.18119 16.3491 5.7969 16.0062 5.68254C15.4423 5.49453 14.9031 5.35243 14.3886 5.25623C13.6876 5.11208 12.979 5.04 12.2629 5.04C10.5562 5.04 9.29905 5.40038 8.49143 6.12114C7.69905 6.8288 7.30286 7.73303 7.30286 8.83383C7.30286 10.734 8.42286 11.9986 10.6629 12.6277L12.5371 13.1584C13.2533 13.355 13.741 13.5843 14 13.8464C14.2743 14.1085 14.4114 14.4689 14.4114 14.9275Z" fill="#858585"/>
</svg>
