<svg width="24" height="24" viewBox="0 0 24 24" fill="none" xmlns="http://www.w3.org/2000/svg">
<path d="M19.618 15.8752C19.3887 15.5877 19.3507 15.2111 19.4793 14.8733C19.9794 13.5611 20.1584 12.0617 19.8703 10.5097C19.3217 7.51945 17.023 5.05659 14.0922 4.27352C8.69765 2.85056 3.51174 7.16705 4.04191 12.822C4.33737 16.0051 6.62347 18.7583 9.68215 19.6565C10.861 20.0006 12.0304 20.072 13.1349 19.9147C13.4928 19.8644 13.8604 19.9964 14.0808 20.2728C14.5746 20.892 14.1922 21.7848 13.4245 21.8996C11.9212 22.1126 10.3345 21.9942 8.744 21.4628C4.88532 20.1626 2.1666 16.5152 2.01054 12.4522C1.73957 5.56857 8.20877 0.49098 14.856 2.4073C18.7635 3.54194 21.6382 7.0559 21.9665 11.1081C22.0965 12.7229 21.8557 14.2354 21.3401 15.5962C21.0573 16.3191 20.103 16.4833 19.618 15.8752Z" fill="#858585"/>
<path d="M16.0001 17.2543V21.3431C16.0001 21.948 16.6439 22.3156 17.1268 21.9863L20.1633 19.9419C20.6096 19.6433 20.6096 18.9541 20.1633 18.6555L17.1268 16.6111C16.6439 16.2818 16.0001 16.6494 16.0001 17.2543Z" fill="#858585"/>
<path d="M12 17.0001C14.7614 17.0001 17 14.7616 17 12.0001C17 9.23871 14.7614 7.00013 12 7.00013C9.2386 7.00013 7.00002 9.23871 7.00002 12.0001C7.00002 14.7616 9.2386 17.0001 12 17.0001Z" fill="#858585"/>
</svg>
