<svg width="24" height="24" viewBox="0 0 24 24" fill="none" xmlns="http://www.w3.org/2000/svg">
<path d="M4.00007 12.1421L4.00013 3.25C4.00013 2.55964 4.55977 2 5.25013 2C5.94048 2 6.50013 2.55964 6.50013 3.25V12.0827C6.50013 12.6749 6.51982 13.177 6.69109 13.5364C6.75972 13.6805 6.84111 13.7717 6.95028 13.8376C7.0656 13.9071 7.2988 14 7.75013 14C8.20145 14 8.43465 13.9071 8.54997 13.8376C8.65914 13.7717 8.74053 13.6805 8.80916 13.5364C8.98043 13.177 9.00012 12.6749 9.00013 12.0827V3.25C9.00013 2.55964 9.55977 2 10.2501 2C10.9405 2 11.5001 2.55964 11.5001 3.25L11.5002 12.1421C11.5009 12.6605 11.5024 13.6959 11.0661 14.6117C10.8222 15.1236 10.4349 15.6203 9.84091 15.9785C9.58256 16.1342 9.30172 16.2538 9.00024 16.339V19.0253C9.30954 19.3409 9.50024 19.7732 9.50024 20.25C9.50024 21.2165 8.71674 22 7.75024 22C6.78375 22 6.00024 21.2165 6.00024 20.25C6.00024 19.7732 6.19095 19.3409 6.50024 19.0253L6.50024 16.339C6.19868 16.2539 5.91775 16.1343 5.65934 15.9785C5.06539 15.6203 4.67803 15.1236 4.43416 14.6117C3.9978 13.6959 3.99931 12.6605 4.00007 12.1421Z" fill="#858585"/>
<path d="M17.0393 14.4524C19.1096 12.0058 19.2576 8.48753 17.4 5.87584C17.099 5.45979 17.1652 4.89639 17.5333 4.55799C17.5627 4.53092 17.5921 4.50385 17.6283 4.48414C18.0806 4.16344 18.7061 4.26757 19.0268 4.71983C21.4192 8.07587 21.2285 12.6114 18.5627 15.755C18.1984 16.1714 17.5664 16.2227 17.15 15.8584C16.7263 15.5009 16.675 14.8689 17.0393 14.4524Z" fill="#858585"/>
<path d="M15.8911 12.642C15.5957 13.1037 14.9742 13.2404 14.5057 12.9376C14.0372 12.6349 13.9074 12.0208 14.2101 11.5522C14.8004 10.6428 14.8491 9.48422 14.3379 8.51439C14.1217 8.1019 14.2131 7.61034 14.5444 7.30578C14.6033 7.25164 14.6763 7.19809 14.7488 7.15867C15.2337 6.90303 15.8414 7.09134 16.1044 7.56948C16.9563 9.19057 16.8749 11.1263 15.8911 12.642Z" fill="#858585"/>
</svg>
