<svg width="24" height="24" viewBox="0 0 24 24" fill="none" xmlns="http://www.w3.org/2000/svg">
<path d="M21.1597 3.90094C21.4526 3.60804 21.4526 3.13317 21.1597 2.84028C20.8668 2.54738 20.3919 2.54738 20.099 2.84028L19.8268 3.11251L19.5547 2.84043C19.2618 2.54752 18.787 2.5475 18.4941 2.84038C18.2012 3.13325 18.2011 3.60813 18.494 3.90104L18.7661 4.17317L17.5138 5.42545L17.2418 5.15338C16.9489 4.86047 16.474 4.86044 16.1811 5.15332C15.8882 5.4462 15.8882 5.92107 16.1811 6.21398L16.4532 6.48611L14.1471 8.79217L15.2078 9.85283L15.7879 9.27278L15.795 9.26555L17.5138 7.54683L17.7859 7.81899C18.0788 8.1119 18.5536 8.11192 18.8466 7.81905C19.1395 7.52617 19.1395 7.0513 18.8466 6.75839L18.5744 6.48617L19.8267 5.23389L20.0988 5.50605C20.3917 5.79895 20.8666 5.79898 21.1595 5.5061C21.4524 5.21323 21.4524 4.73835 21.1596 4.44544L20.8874 4.17323L21.1597 3.90094Z" fill="#858585"/>
<path d="M11.0462 12.9538C10.7533 12.6609 10.7533 12.1861 11.0462 11.8932L14.1123 8.82708C12.7314 7.98102 10.8056 8.23931 9.49908 9.54582C8.90235 10.1425 8.5244 10.869 8.37033 11.6128C8.32463 11.7778 8.23503 11.9364 8.10038 12.071C7.92606 12.2453 7.70928 12.3458 7.49027 12.3705C6.29329 12.3891 5.05784 12.8859 4.09727 13.8465C2.45401 15.4897 2.16746 17.9345 3.31239 19.6303C3.32517 19.6153 3.33864 19.6008 3.3528 19.5866L5.8528 17.0866C6.14569 16.7937 6.62056 16.7937 6.91346 17.0866C7.20635 17.3795 7.20635 17.8544 6.91346 18.1473L4.41346 20.6473C4.3993 20.6614 4.38472 20.6749 4.36976 20.6877C6.06554 21.8326 8.51034 21.5461 10.1536 19.9028C11.1142 18.9422 11.6109 17.7068 11.6296 16.5098C11.6542 16.2908 11.7547 16.074 11.929 15.8997C12.0637 15.765 12.2223 15.6754 12.3873 15.6297C13.131 15.4757 13.8575 15.0977 14.4543 14.501C15.7608 13.1945 16.0191 11.2687 15.173 9.8878L12.1068 12.9538C11.814 13.2467 11.3391 13.2467 11.0462 12.9538Z" fill="#858585"/>
</svg>
